<?xml version="1.0" encoding="UTF-8" standalone="no"?>
<!DOCTYPE svg PUBLIC "-//W3C//DTD SVG 1.1//EN" "http://www.w3.org/Graphics/SVG/1.1/DTD/svg11.dtd">
<svg version="1.1" xmlns="http://www.w3.org/2000/svg" xmlns:xlink="http://www.w3.org/1999/xlink" preserveAspectRatio="xMidYMid meet" viewBox="0 0 640 640" width="640" height="640"><defs><path d="" id="b2L0MEmzp"></path><path d="M291.11 279.74L274.15 281.85" id="b27R2fEYxs"></path><path d="M290.61 279.49L295.65 290.74L297.7 295.38L299.38 300.58L302.61 309.73L304.99 317.72L306.91 325.78L309.89 341.07L309.03 341.07L305.33 329.96L303.54 325.44L301.7 321.09L300.26 317.72L298.72 314.55L297.28 311.28L295.35 307.43L293.91 304.59L291.99 301.28L290.96 299.64L290.35 298.68L288.62 295.89L286.8 293.39L285.16 291.09L283.05 288.59L279.49 285.6L273.81 281.85" id="c1pVjGMJJm"></path><path d="M301.96 264.84L305.5 275.44L307.89 283.59L310.99 296.66L314.23 313.35L316.15 325L317.48 334.15L317.92 339.01L312.46 340.34L311.87 336.95L310.54 330.31L309.89 326.18L308.77 321.46L307.89 318.22L305.5 309.73L303.88 304.63L301.96 298.73L300.63 294.9L299.16 290.74L297.98 288.41L296.35 284.28L294.73 280.84L292.52 276.46L290.07 272.18L288.68 269.53L286.18 266.43L282.32 262.45L278.36 259.2L299.16 256.7L301.96 264.84Z" id="cQ8MX40Gr"></path><path d="" id="a9Xh4oYts"></path><path d="M325.4 329.31L324.66 318.85L323.19 305.89L321.7 296.1L319.09 283.14L315.51 267.57L313.16 259.87L311.29 252.8L308.78 244.11L323.95 242.63L333.08 242.19L342.36 241.75L367.69 241.75L370.49 242.63L374.03 254.86L379.62 281.85L382.13 296.1L381.24 283.14L380.51 276.07L379.62 269.14L378.59 262.81L377.12 255.58L376.38 251.77L375.65 247.94L372.26 236.88L370.05 236.29L364.75 235.86L359.78 235.55L352.72 235.55L332.1 235.55L312.07 236.29L304.56 236.88L293.22 237.61L295.87 240.85L299.55 247.48L302.94 255.58L306.82 267.57L308.15 271.4L310.65 281.27L313.16 290.74L315.51 301.15L317.58 311.31L319.49 322.5L320.82 331.19L321.7 337.67L325.97 335.61L325.4 329.31Z" id="e9BgDNPJA"></path><path d="M394.68 268.83L395.38 268.83L397.65 268.42L400.38 268.01L403.95 267.81L407.41 268.01L410.69 268.83L414.87 270.05L417.73 272.29L419.55 275.27L419.55 278.14L418.84 281.41L416.9 285.48L414.66 288.85L411.5 293.03L404.36 299.96L394.68 308.32L384.94 316.11L375.77 322.32L362.62 330.28L352.53 335.58L341.59 340.68L332.31 344.76L320 348.94L307.65 352.61L301.63 353.83L295.82 354.85L290.54 355.26L285.42 355.26L279.51 355.26L275.74 353.83L272.48 351.69L271.36 349.86L271.36 347.61L271.66 345.07L272.48 341.5L274.62 336.91L276.88 333.23L279.94 329.14L285.04 324.15L290.54 319.15L295.33 315.18L296.35 316.11L288.2 324.15L284.12 328.63L281.06 333.23L279.23 337.2L279.23 339.03L279.94 342.7L281.98 345.35L286.54 347.03L292.97 347.03L301.63 346.52L311.32 344.49L324.77 340.1L335.98 336.13L341.95 333.23L357.54 325.59L373.14 316.11L382.52 309.79L390.59 303L400.38 294.13L406.09 286.99L408.43 282.3L408.94 278.94L408.94 275.98L407.41 273.95L403.95 271.8L400.89 270.79L395.38 270.79L396.3 275.27L383.35 270.48L394.06 264.97L394.68 268.83Z" id="b38742d2MJ"></path><path d="M280.46 290.94L281.59 292.18C282.54 293.48 283.59 294.96 284.73 296.62C285.88 298.28 287.37 300.53 289.2 303.35L289.63 304.15L281.37 305.16L275.22 306.87L267.86 309.69C267.2 306.73 266.66 304.25 266.24 302.25C266.24 302.25 266.24 302.25 266.24 302.25C265.64 299.22 265.34 296.14 265.34 293.05C265.34 292.53 265.34 293.37 265.34 292.29C265.34 291.07 265.65 289.88 266.24 288.83C266.24 288.83 266.24 288.83 266.24 288.83L266.91 287.84L267.86 286.55L268.84 285.37L269.65 284.5L270.46 283.64C271.13 284 271.55 284.22 271.72 284.3C274.98 286.01 277.94 288.26 280.46 290.94C280.46 290.94 280.46 290.94 280.46 290.94Z" id="b4qLI4zL9x"></path><path d="M320.39 261.29L366.12 255.25L365.61 252.92L318.84 256.37L320.39 261.29Z" id="a2PIxaQzU4"></path><path d="M368.63 268.71L368.97 270.52L323.67 275.87L322.55 270.87L368.63 268.71Z" id="dbPjh68t"></path><path d="M322.55 353.07C334.41 349.41 352.37 341.79 362.85 335.98C371.53 331.17 389.25 319.58 396.98 313.3C409.34 303.27 417.32 293.39 420.93 283.64C418.01 288.95 414.02 294.23 408.98 299.5C403.26 305.49 396.56 311.26 389.29 316.61C381.25 322.53 370.42 329.46 361.55 334.08C348.72 340.76 340.05 345.07 326.07 349.56C319.57 351.66 310.33 354.99 303.58 356.25C297.71 357.34 291.75 358.11 285.7 358.57C296.63 359.12 308.91 357.28 322.55 353.07Z" id="f1vAnuFDVq"></path><path d="" id="boBxS5ILl"></path><path d="M413.87 295.3C415.79 301.84 416.87 307.56 417.13 312.45C417.15 312.83 417.16 313.14 417.17 313.39C417.41 320.84 416.87 328.31 415.55 335.65C415.34 336.82 415.16 337.7 415 338.27C406.33 369.7 369.47 391.03 336.29 382.27C333.54 381.54 329.31 380.19 323.03 377.21C323.03 377.21 323.03 377.21 323.03 377.21C314.34 372.21 306.64 365.67 300.3 357.9C300.28 357.87 300.22 357.8 300.12 357.68" id="b3mHUeU13r"></path><path d="M346.05 354.82C338.42 357.83 331.43 360.23 325.1 362.01C318.76 363.8 312.87 364.99 307.43 365.56" id="eLbDZ6dr3"></path><path d="M340.84 366.76C337.48 368.22 333.91 369.45 330.13 370.45C326.35 371.44 321.92 372.2 316.85 372.72" id="dhvfgMAQy"></path><path d="M337.97 376.42C336.22 377.03 334.52 377.53 332.89 377.93C331.26 378.33 329.21 378.62 326.74 378.81" id="b95rxBcRqG"></path><path d="M310.32 367.28C314.57 366.52 319.59 365.14 325.4 363.13C331.21 361.13 337.81 358.51 345.18 355.26" id="b1TmQi1xF7"></path><path d="M319.23 374.37L327.23 372.07L334.1 369.74L339.65 367.28" id="e2cph72pDM"></path><path d="M330.82 379.65L336.96 376.8" id="cDXXUr2tW"></path><path d="M372.05 282.1L372.37 284.15L326.79 290.15L326 285.1L372.05 282.1Z" id="cG03ovHr0"></path><path d="M374.89 296.45L375.37 298.98L328.84 304.97L328.36 299.92L374.89 296.45Z" id="hOUkCLtkk"></path><path d="M361.64 314.28L362.12 316.01L331.6 320.59L331.2 316.33L361.64 314.28Z" id="h4TJ7C1dS"></path></defs><g><g><g><g><use xlink:href="#b2L0MEmzp" opacity="1" fill-opacity="0" stroke="#000000" stroke-width="2" stroke-opacity="1"></use></g></g><g><g><use xlink:href="#b27R2fEYxs" opacity="1" fill-opacity="0" stroke="#0e0303" stroke-width="1" stroke-opacity="1"></use></g></g><g><use xlink:href="#c1pVjGMJJm" opacity="1" fill="#000000" fill-opacity="1"></use><g><use xlink:href="#c1pVjGMJJm" opacity="1" fill-opacity="0" stroke="#0e0303" stroke-width="1" stroke-opacity="1"></use></g></g><g><use xlink:href="#cQ8MX40Gr" opacity="1" fill="#000000" fill-opacity="1"></use><g><use xlink:href="#cQ8MX40Gr" opacity="1" fill-opacity="0" stroke="#0e0303" stroke-width="1" stroke-opacity="1"></use></g></g><g><g><use xlink:href="#a9Xh4oYts" opacity="1" fill-opacity="0" stroke="#0e0303" stroke-width="1" stroke-opacity="1"></use></g></g><g><use xlink:href="#e9BgDNPJA" opacity="1" fill="#000000" fill-opacity="1"></use><g><use xlink:href="#e9BgDNPJA" opacity="1" fill-opacity="0" stroke="#0e0303" stroke-width="1" stroke-opacity="1"></use></g></g><g><use xlink:href="#b38742d2MJ" opacity="1" fill="#150202" fill-opacity="1"></use><g><use xlink:href="#b38742d2MJ" opacity="1" fill-opacity="0" stroke="#0e0303" stroke-width="1" stroke-opacity="1"></use></g></g><g><use xlink:href="#b4qLI4zL9x" opacity="1" fill="#000000" fill-opacity="1"></use><g><use xlink:href="#b4qLI4zL9x" opacity="1" fill-opacity="0" stroke="#0e0303" stroke-width="1" stroke-opacity="1"></use></g></g><g><use xlink:href="#a2PIxaQzU4" opacity="1" fill="#000000" fill-opacity="1"></use><g><use xlink:href="#a2PIxaQzU4" opacity="1" fill-opacity="0" stroke="#0e0303" stroke-width="1" stroke-opacity="1"></use></g></g><g><use xlink:href="#dbPjh68t" opacity="1" fill="#150505" fill-opacity="1"></use><g><use xlink:href="#dbPjh68t" opacity="1" fill-opacity="0" stroke="#0e0303" stroke-width="1" stroke-opacity="1"></use></g></g><g><use xlink:href="#f1vAnuFDVq" opacity="1" fill="#000000" fill-opacity="1"></use><g><use xlink:href="#f1vAnuFDVq" opacity="1" fill-opacity="0" stroke="#0e0303" stroke-width="1" stroke-opacity="1"></use></g></g><g><g><use xlink:href="#boBxS5ILl" opacity="1" fill-opacity="0" stroke="#0e0303" stroke-width="3" stroke-opacity="1"></use></g></g><g><g><use xlink:href="#b3mHUeU13r" opacity="1" fill-opacity="0" stroke="#0e0303" stroke-width="4" stroke-opacity="1"></use></g></g><g><g><use xlink:href="#eLbDZ6dr3" opacity="1" fill-opacity="0" stroke="#0e0303" stroke-width="2" stroke-opacity="1"></use></g></g><g><g><use xlink:href="#dhvfgMAQy" opacity="1" fill-opacity="0" stroke="#0e0303" stroke-width="2" stroke-opacity="1"></use></g></g><g><g><use xlink:href="#b95rxBcRqG" opacity="1" fill-opacity="0" stroke="#0e0303" stroke-width="2" stroke-opacity="1"></use></g></g><g><g><use xlink:href="#b1TmQi1xF7" opacity="1" fill-opacity="0" stroke="#0e0303" stroke-width="2" stroke-opacity="1"></use></g></g><g><g><use xlink:href="#e2cph72pDM" opacity="1" fill-opacity="0" stroke="#0e0303" stroke-width="2" stroke-opacity="1"></use></g></g><g><g><use xlink:href="#cDXXUr2tW" opacity="1" fill-opacity="0" stroke="#0e0303" stroke-width="2" stroke-opacity="1"></use></g></g><g><use xlink:href="#cG03ovHr0" opacity="1" fill="#1a1515" fill-opacity="1"></use><g><use xlink:href="#cG03ovHr0" opacity="1" fill-opacity="0" stroke="#0e0303" stroke-width="1" stroke-opacity="1"></use></g></g><g><use xlink:href="#hOUkCLtkk" opacity="1" fill="#1a1515" fill-opacity="1"></use><g><use xlink:href="#hOUkCLtkk" opacity="1" fill-opacity="0" stroke="#0e0303" stroke-width="1" stroke-opacity="1"></use></g></g><g><use xlink:href="#h4TJ7C1dS" opacity="1" fill="#1a1515" fill-opacity="1"></use><g><use xlink:href="#h4TJ7C1dS" opacity="1" fill-opacity="0" stroke="#0e0303" stroke-width="1" stroke-opacity="1"></use></g></g></g></g></svg>